<svg width="37" height="24" viewBox="0 0 37 24" fill="none" xmlns="http://www.w3.org/2000/svg">
<path d="M12 14.5C12 10.9101 14.9101 8 18.5 8V8C22.0899 8 25 10.9101 25 14.5V24H12V14.5Z" fill="#C4C4C4"/>
<circle cx="18.5" cy="3.5" r="3.5" fill="#C4C4C4"/>
<path d="M27 16.875C27 14.1826 29.1826 12 31.875 12V12C34.5674 12 36.75 14.1826 36.75 16.875V24H27V16.875Z" fill="#C4C4C4"/>
<circle cx="31.875" cy="8.625" r="2.625" fill="#C4C4C4"/>
<path d="M0 16.875C0 14.1826 2.18261 12 4.875 12V12C7.56739 12 9.75 14.1826 9.75 16.875V24H0V16.875Z" fill="#C4C4C4"/>
<circle cx="4.875" cy="8.625" r="2.625" fill="#C4C4C4"/>
</svg>
