<svg width="103" height="74" viewBox="0 0 103 74" fill="none" xmlns="http://www.w3.org/2000/svg">
    <circle cx="71.2935" cy="53.5" r="9.5" fill="#C4C4C4"/>
    <ellipse cx="73.7935" cy="63.5" rx="7" ry="6.5" fill="#C4C4C4"/>
    <ellipse cx="80.7935" cy="56.5" rx="4" ry="3.5" fill="#C4C4C4"/>
    <ellipse cx="92.7935" cy="66.5" rx="4" ry="3.5" fill="#C4C4C4"/>
    <circle cx="83.7935" cy="64" r="1" fill="#C4C4C4"/>
    <circle cx="80.2935" cy="69.5" r="0.5" fill="#C4C4C4"/>
    <circle cx="92.2935" cy="73.5" r="0.5" fill="#C4C4C4"/>
    <ellipse cx="98.3432" cy="60.6566" rx="4.5" ry="1.5" transform="rotate(2.00586 98.3432 60.6566)" fill="#C4C4C4"/>
    <ellipse cx="85.8311" cy="70.6798" rx="1" ry="2.5" transform="rotate(-27.3781 85.8311 70.6798)" fill="#C4C4C4"/>
    <circle cx="88.2935" cy="59.5" r="1.5" fill="#C4C4C4"/>
    <mask id="path-11-inside-1_9_131" fill="white">
        <path fill-rule="evenodd" clip-rule="evenodd" d="M21.9844 11.7899L5.94151 8.65728L14.6337 22.5005L14.631 22.5044L58.3295 52.495L65.6857 41.7765L21.9871 11.7859L21.9844 11.7899Z"/>
    </mask>
    <path fill-rule="evenodd" clip-rule="evenodd" d="M21.9844 11.7899L5.94151 8.65728L14.6337 22.5005L14.631 22.5044L58.3295 52.495L65.6857 41.7765L21.9871 11.7859L21.9844 11.7899Z" fill="white"/>
    <path d="M5.94151 8.65728L6.13316 7.67581L3.86656 7.23323L5.09462 9.18904L5.94151 8.65728ZM21.9844 11.7899L21.7928 12.7713L22.4373 12.8972L22.8089 12.3557L21.9844 11.7899ZM14.6337 22.5005L15.4582 23.0663L15.8298 22.5249L15.4806 21.9687L14.6337 22.5005ZM14.631 22.5044L13.8065 21.9386L13.2406 22.7631L14.0651 23.3289L14.631 22.5044ZM58.3295 52.495L57.7637 53.3195L58.5882 53.8853L59.154 53.0608L58.3295 52.495ZM65.6857 41.7765L66.5102 42.3423L67.0761 41.5178L66.2516 40.952L65.6857 41.7765ZM21.9871 11.7859L22.553 10.9614L21.7285 10.3955L21.1626 11.2201L21.9871 11.7859ZM5.74987 9.63874L21.7928 12.7713L22.1761 10.8084L6.13316 7.67581L5.74987 9.63874ZM15.4806 21.9687L6.78841 8.12551L5.09462 9.18904L13.7868 23.0322L15.4806 21.9687ZM15.4555 23.0703L15.4582 23.0663L13.8092 21.9346L13.8065 21.9386L15.4555 23.0703ZM58.8954 51.6705L15.1968 21.6799L14.0651 23.3289L57.7637 53.3195L58.8954 51.6705ZM64.8612 41.2106L57.505 51.9291L59.154 53.0608L66.5102 42.3423L64.8612 41.2106ZM21.4213 12.6104L65.1199 42.601L66.2516 40.952L22.553 10.9614L21.4213 12.6104ZM22.8089 12.3557L22.8116 12.3518L21.1626 11.2201L21.1599 11.224L22.8089 12.3557Z" fill="black" mask="url(#path-11-inside-1_9_131)"/>
    <path d="M22.8681 18.4548C23.5511 18.9236 23.7248 19.8573 23.2561 20.5403C22.7873 21.2234 21.8536 21.3971 21.1705 20.9283C20.4875 20.4595 20.3138 19.5258 20.7826 18.8427C21.2513 18.1597 22.1851 17.986 22.8681 18.4548Z" fill="black"/>
    <path d="M30.2886 23.5475C30.9716 24.0163 31.1453 24.95 30.6766 25.6331C30.2078 26.3161 29.2741 26.4898 28.591 26.021C27.908 25.5523 27.7343 24.6185 28.2031 23.9355C28.6718 23.2524 29.6056 23.0788 30.2886 23.5475Z" fill="black"/>
    <path d="M37.7091 28.6403C38.3922 29.109 38.5659 30.0428 38.0971 30.7258C37.6283 31.4088 36.6946 31.5825 36.0116 31.1138C35.3285 30.645 35.1548 29.7113 35.6236 29.0282C36.0924 28.3452 37.0261 28.1715 37.7091 28.6403Z" fill="black"/>
    <path d="M45.1296 33.733C45.8127 34.2018 45.9864 35.1355 45.5176 35.8185C45.0488 36.5016 44.1151 36.6753 43.4321 36.2065C42.749 35.7377 42.5753 34.804 43.0441 34.1209C43.5129 33.4379 44.4466 33.2642 45.1296 33.733Z" fill="black"/>
    <rect x="51.7336" y="47.9681" width="13" height="1" transform="rotate(-55.538 51.7336 47.9681)" fill="black"/>
    <path d="M52.7681 53.5296L44.5959 42.4631L55.3145 49.8193L52.7681 53.5296Z" fill="#FF0000" stroke="black"/>
    <path d="M64.6512 36.215L51.3863 32.5691L62.1048 39.9253L64.6512 36.215Z" fill="#FF0000" stroke="black"/>
    <path d="M61.4982 54.0632L59.6149 49.7386L63.5759 43.967L68.2885 44.1692L61.4982 54.0632Z" fill="black" stroke="black"/>
    <path d="M12.0203 10.4034L7.17829 9.50607L9.75683 13.7014L12.0203 10.4034Z" fill="black" stroke="black"/>
</svg>
