<svg width="20" height="19" viewBox="0 0 20 19" fill="none" xmlns="http://www.w3.org/2000/svg">
<path fill-rule="evenodd" clip-rule="evenodd" d="M10.3159 7.17197C10.3159 8.93119 8.89465 10.3439 7.15794 10.3439C5.42124 10.3439 4 8.93119 4 7.17197C4 5.41275 5.42124 4 7.15794 4C8.89465 4 10.3159 5.41275 10.3159 7.17197ZM11.1806 13.1051C10.0342 13.887 8.64931 14.3439 7.15794 14.3439C3.20472 14.3439 0 11.1329 0 7.17197C0 3.211 3.20472 0 7.15794 0C11.1112 0 14.3159 3.211 14.3159 7.17197C14.3159 8.46935 13.9721 9.68626 13.3708 10.7362L19.3412 16.7183L17.064 19L11.1806 13.1051Z" fill="#C4C4C4"/>
</svg>
