<svg width="24" height="23" viewBox="0 0 24 23" fill="none" xmlns="http://www.w3.org/2000/svg">
    <path fill-rule="evenodd" clip-rule="evenodd" d="M10.5 0H13.5V2.11775C15.0045 2.35639 16.3914 2.94821 17.5731 3.80559L19.071 2.30762L21.1924 4.42894L19.6944 5.92691C20.5518 7.1086 21.1436 8.49551 21.3822 10H23.5V13H21.3822C21.1436 14.5045 20.5518 15.8914 19.6944 17.0731L21.1924 18.571L19.0711 20.6924L17.5731 19.1944C16.3914 20.0518 15.0045 20.6436 13.5 20.8822V23H10.5V20.8822C8.99551 20.6436 7.6086 20.0518 6.42691 19.1944L4.92893 20.6924L2.80761 18.5711L4.30559 17.0731C3.44821 15.8914 2.85639 14.5045 2.61775 13H0.5V10H2.61775C2.85639 8.49551 3.44822 7.1086 4.30561 5.92691L2.80762 4.42893L4.92894 2.30761L6.42693 3.80559C7.60862 2.94821 8.99552 2.35639 10.5 2.11775V0ZM12 17C15.0376 17 17.5 14.5376 17.5 11.5C17.5 8.46243 15.0376 6 12 6C8.96243 6 6.5 8.46243 6.5 11.5C6.5 14.5376 8.96243 17 12 17Z" fill="#C4C4C4"/>
</svg>
