<svg width="60" height="54" viewBox="0 0 60 54" fill="none" xmlns="http://www.w3.org/2000/svg">
    <path fill-rule="evenodd" clip-rule="evenodd" d="M4.02419 53.9048L4.21826 52.9238C4.47029 52.9737 4.73158 53 5 53H5.96154V54H5C4.66607 54 4.33979 53.9673 4.02419 53.9048ZM54.0385 54V53H55C55.2684 53 55.5297 52.9737 55.7817 52.9238L55.9758 53.9048C55.6602 53.9673 55.3339 54 55 54H54.0385ZM57.7781 53.1578L57.2218 52.3269C57.6584 52.0345 58.0345 51.6584 58.3269 51.2218L59.1578 51.7781C58.7928 52.3233 58.3233 52.7928 57.7781 53.1578ZM60 6H59V5C59 4.73158 58.9737 4.47029 58.9238 4.21826L59.9048 4.02419C59.9673 4.33979 60 4.66607 60 5V6ZM59.1578 2.22192L58.3269 2.77824C58.0345 2.3416 57.6584 1.96546 57.2218 1.67314L57.7781 0.842174C58.3233 1.20721 58.7928 1.67667 59.1578 2.22192ZM5.96154 0H5C4.66607 0 4.33979 0.0327347 4.02419 0.0951702L4.21826 1.07616C4.47029 1.0263 4.73158 1 5 1H5.96154V0ZM2.22192 0.842173L2.77824 1.67314C2.3416 1.96546 1.96546 2.3416 1.67314 2.77824L0.842173 2.22192C1.20721 1.67666 1.67666 1.20721 2.22192 0.842173ZM0 48H1V49C1 49.2684 1.0263 49.5297 1.07616 49.7817L0.0951703 49.9758C0.0327347 49.6602 0 49.3339 0 49V48ZM0.842172 51.7781L1.67314 51.2218C1.96546 51.6584 2.3416 52.0345 2.77824 52.3269L2.22192 53.1578C1.67666 52.7928 1.20721 52.3233 0.842172 51.7781ZM0 46H1V44H0V46ZM0 42H1V40H0V42ZM0 38H1V36H0V38ZM0 34H1V32H0V34ZM0 30H1V28H0V30ZM0 26H1V24H0V26ZM0 22H1V20H0V22ZM0 18H1V16H0V18ZM0 14H1V12H0V14ZM0 10H1V8H0V10ZM0 6H1V5C1 4.73158 1.0263 4.47029 1.07616 4.21826L0.0951702 4.02419C0.0327347 4.33979 0 4.66607 0 5V6ZM7.88462 0V1H9.80769V0H7.88462ZM11.7308 0V1H13.6538V0H11.7308ZM15.5769 0V1H17.5V0H15.5769ZM19.4231 0V1H21.3462V0H19.4231ZM23.2692 0V1H25.1923V0H23.2692ZM27.1154 0V1H29.0385V0H27.1154ZM30.9615 0V1H32.8846V0H30.9615ZM34.8077 0V1H36.7308V0H34.8077ZM38.6538 0V1H40.5769V0H38.6538ZM42.5 0V1H44.4231V0H42.5ZM46.3462 0V1H48.2692V0H46.3462ZM50.1923 0V1H52.1154V0H50.1923ZM54.0385 0V1H55C55.2684 1 55.5297 1.0263 55.7817 1.07616L55.9758 0.0951704C55.6602 0.0327348 55.3339 0 55 0H54.0385ZM60 8H59V10H60V8ZM60 12H59V14H60V12ZM60 16H59V18H60V16ZM60 20H59V22H60V20ZM60 24H59V26H60V24ZM60 28H59V30H60V28ZM60 32H59V34H60V32ZM60 36H59V38H60V36ZM60 40H59V42H60V40ZM60 44H59V46H60V44ZM60 48H59V49C59 49.2684 58.9737 49.5297 58.9238 49.7817L59.9048 49.9758C59.9673 49.6602 60 49.3339 60 49V48ZM52.1154 54V53H50.1923V54H52.1154ZM48.2692 54V53H46.3462V54H48.2692ZM44.4231 54V53H42.5V54H44.4231ZM40.5769 54V53H38.6538V54H40.5769ZM36.7308 54V53H34.8077V54H36.7308ZM32.8846 54V53H30.9615V54H32.8846ZM29.0385 54V53H27.1154V54H29.0385ZM25.1923 54V53H23.2692V54H25.1923ZM21.3462 54V53H19.4231V54H21.3462ZM17.5 54V53H15.5769V54H17.5ZM13.6538 54V53H11.7308V54H13.6538ZM9.8077 54V53H7.88462V54H9.8077Z" fill="#636363"/>
    <path fill-rule="evenodd" clip-rule="evenodd" d="M20.5 27V26H21.5V27C21.5 29.4853 23.5147 31.5 26 31.5H34C36.4853 31.5 38.5 29.4853 38.5 27V26H39.5V27C39.5 30.0376 37.0376 32.5 34 32.5H26C22.9624 32.5 20.5 30.0376 20.5 27Z" fill="#636363"/>
    <path fill-rule="evenodd" clip-rule="evenodd" d="M26.4644 23.8284L29.6464 20.6464C29.8417 20.4512 30.1583 20.4512 30.3535 20.6464L33.5355 23.8284C33.7308 24.0237 33.7308 24.3403 33.5355 24.5355C33.3402 24.7308 33.0237 24.7308 32.8284 24.5355L30.5 22.2071L30.5 28L29.5 28L29.5 22.2071L27.1715 24.5355C26.9763 24.7308 26.6597 24.7308 26.4644 24.5355C26.2692 24.3403 26.2692 24.0237 26.4644 23.8284Z" fill="#636363"/>
</svg>
